<svg width="157" height="32" viewBox="0 0 157 32" fill="none" xmlns="http://www.w3.org/2000/svg">
<g clip-path="url(#clip0_1_653)">
<path fill-rule="evenodd" clip-rule="evenodd" d="M15.6575 31.8399H15.6806L31.3497 16.1258L15.669 0.399902L0 16.1141V16.1375L15.6575 31.8399Z" fill="#E74214"/>
<path d="M18.8973 14.1604H11.1976V8.42041H9.9082V23.8317H11.1976V15.4601H18.8973V14.1604Z" fill="#E74214"/>
<path d="M7.49609 10.8408H8.79246V21.4117H7.49609V10.8408Z" fill="#E74214"/>
<path d="M5.09375 13.3022H6.38348V18.9945H5.09375V13.3022Z" fill="#E74214"/>
<path d="M20.1402 16.7535H12.4023V18.0465H20.1402V23.8317H21.4299V8.42041H20.1402V16.7535Z" fill="#E74214"/>
<path d="M22.5449 10.8408H23.8413V21.4117H22.5449V10.8408Z" fill="#E74214"/>
<path d="M24.9551 13.3022H26.2448V18.9945H24.9551V13.3022Z" fill="#E74214"/>
<path d="M44.4984 7.15039V13.806H41.7022V7.15039H37.2461V24.9344H41.7022V18.2782H44.4984V24.9344H48.955V7.15039H44.4984Z" fill="#E74214"/>
<path d="M57.5361 13.8062H54.7381V13.0265C54.7381 12.2514 55.3649 11.6229 56.138 11.6229C56.9109 11.6229 57.5376 12.2514 57.5376 13.0265H57.5361V13.8062ZM56.137 7.15576C52.9041 7.15576 50.2832 9.78413 50.2832 13.0265V24.9358H54.7381V18.2785H57.5361V24.9358H61.9909V13.0265C61.9909 9.78413 59.3701 7.15576 56.137 7.15576Z" fill="#E74214"/>
<path d="M75.0149 7.15039V7.15213L71.3945 13.4407L67.7734 7.15039L67.7718 7.15136V7.15039H63.3184V24.9344H67.7718V16.1049L71.1451 21.9647C71.1451 21.9647 71.2233 22.1134 71.3945 22.1134C71.5661 22.1134 71.6394 21.9731 71.6394 21.9731L75.0149 16.1096V24.9344H79.4806V7.15039H75.0149Z" fill="#E74214"/>
<path d="M92.5051 7.15332V7.15486L88.885 13.4436L85.2637 7.15332L85.2619 7.15419V7.15332H80.8086V24.9372H85.2619V16.1077L88.6354 21.9673C88.6354 21.9673 88.7135 22.1162 88.885 22.1162C89.0562 22.1162 89.1296 21.9759 89.1296 21.9759L92.5051 16.1124V24.9372H96.9708V7.15332H92.5051Z" fill="#E74214"/>
<path d="M108.555 11.6226V7.15039H98.4004V24.9344H108.555V20.4616H102.857V18.2782H108.555V13.806H102.857V11.6226H108.555Z" fill="#E74214"/>
<path d="M114.337 11.6226H115.58C116.782 11.6226 117.756 12.5999 117.756 13.8052C117.756 15.0107 116.782 15.9879 115.58 15.9879H114.337V11.6226ZM118.962 19.4672C120.85 18.2937 122.108 16.1979 122.108 13.8066C122.108 10.1306 119.137 7.15039 115.471 7.15039H109.881V24.9344H114.337V20.3629L116.963 24.9344L122.108 24.9355L118.964 19.4674L118.962 19.4672Z" fill="#E74214"/>
<path d="M138.768 11.6226V7.15039H128.613V24.9344H133.07V18.2782H138.768V13.806H133.07V11.6226H138.768Z" fill="#E74214"/>
<path d="M140.201 7.15039H144.657V24.9344H140.201V7.15039Z" fill="#E74214"/>
<path d="M145.982 7.15039V11.6226H148.881V24.9344H153.337V11.6226H156.239V7.15039H145.982Z" fill="#E74214"/>
<path d="M40.3282 29.0613C40.2986 28.9468 40.2582 28.8418 40.2067 28.7455C40.155 28.6498 40.0888 28.5667 40.0079 28.4965C39.9268 28.4264 39.832 28.372 39.7233 28.3331C39.6148 28.2944 39.4888 28.2752 39.3452 28.2752C39.1357 28.2752 38.9542 28.3175 38.8014 28.4026C38.6487 28.4874 38.5245 28.6007 38.4288 28.743C38.333 28.8851 38.2622 29.0468 38.2161 29.2274C38.1701 29.4084 38.1472 29.593 38.1472 29.781C38.1472 29.9695 38.1701 30.1541 38.2161 30.3348C38.2622 30.5159 38.333 30.6774 38.4288 30.8194C38.5245 30.9613 38.6487 31.0748 38.8014 31.1599C38.9542 31.2447 39.1357 31.2873 39.3452 31.2873C39.4999 31.2873 39.6359 31.2602 39.7538 31.2068C39.8717 31.1534 39.9728 31.0798 40.0577 30.9854C40.1425 30.8914 40.2084 30.7816 40.2564 30.656C40.3041 30.5306 40.3353 30.3957 40.3503 30.2517H41.0239C41.009 30.4881 40.9584 30.704 40.872 30.8996C40.7856 31.0953 40.6687 31.2643 40.5214 31.4062C40.3741 31.5485 40.2013 31.6581 40.0023 31.7357C39.8665 31.7887 39.7214 31.8235 39.5667 31.8402H39.1156C38.9118 31.8189 38.7242 31.7683 38.5528 31.6886C38.3191 31.5799 38.1213 31.431 37.9595 31.2432C37.7973 31.0547 37.6731 30.8352 37.5865 30.5842C37.5 30.333 37.457 30.0654 37.457 29.781C37.457 29.5008 37.5 29.2348 37.5865 28.9838C37.6731 28.7329 37.7973 28.5132 37.9595 28.3247C38.1213 28.1368 38.3191 27.9872 38.5528 27.8766C38.7867 27.7657 39.0509 27.7104 39.3452 27.7104C39.566 27.7104 39.7741 27.7406 39.9692 27.8017C40.1643 27.8626 40.3365 27.9513 40.4856 28.0673C40.6345 28.1838 40.7552 28.3247 40.8471 28.4912C40.9392 28.6572 40.9962 28.8472 41.0184 29.0613H40.3282Z" fill="#E74214"/>
<path d="M44.7461 27.8042H47.5841V28.4022H45.4362V29.4375H47.424V30.0023H45.4362V31.1595H47.6229V31.7576H44.7461V27.8042Z" fill="#E74214"/>
<path d="M50.9395 27.8042H54.1311V28.4022H52.8776V31.7576H52.1875V28.4022H50.9395V27.8042Z" fill="#E74214"/>
<path d="M58.3718 31.1927H59.3933C59.4853 31.1927 59.5717 31.1836 59.6529 31.1649C59.7337 31.1465 59.8056 31.1126 59.8681 31.0626C59.9307 31.0128 59.9804 30.9455 60.0173 30.8606C60.054 30.7757 60.0725 30.6686 60.0725 30.5394C60.0725 30.414 60.0513 30.3095 60.0089 30.2265C59.9665 30.1435 59.9116 30.077 59.8432 30.0271C59.7752 29.9772 59.7007 29.9414 59.6198 29.9192C59.5386 29.8971 59.4595 29.886 59.3823 29.886H58.3718V31.1927ZM57.6816 27.8042H58.3718V29.3213H59.421C59.7007 29.3213 59.929 29.3609 60.1057 29.4402C60.2825 29.5198 60.4185 29.6203 60.5143 29.7421C60.6099 29.8638 60.6753 29.9959 60.7103 30.1378C60.7452 30.2803 60.7628 30.412 60.7628 30.5337C60.7628 30.6556 60.7452 30.7886 60.7103 30.9326C60.6753 31.0765 60.6099 31.2094 60.5143 31.3311C60.4185 31.4529 60.2825 31.5546 60.1057 31.6357C59.929 31.717 59.7007 31.7576 59.421 31.7576H57.6816V27.8042Z" fill="#E74214"/>
<path d="M71.9448 29.72C71.9448 29.5872 71.9291 29.4625 71.8978 29.3462C71.8666 29.2299 71.8168 29.1267 71.7487 29.0363C71.6804 28.946 71.5904 28.8702 71.478 28.8091C71.3657 28.7484 71.2287 28.7069 71.0668 28.6847V30.7501C71.2287 30.7278 71.3657 30.6862 71.478 30.6255C71.5904 30.5643 71.6804 30.4888 71.7487 30.3985C71.8168 30.308 71.8666 30.2054 71.8978 30.0912C71.9291 29.9764 71.9448 29.8528 71.9448 29.72ZM69.5043 29.72C69.5043 29.8528 69.5188 29.9764 69.5484 30.0912C69.5778 30.2054 69.6273 30.308 69.6976 30.3985C69.7675 30.4888 69.8575 30.5643 69.9682 30.6255C70.0786 30.6862 70.2146 30.7278 70.3765 30.7501V28.6902C70.2146 28.7121 70.0786 28.7536 69.9682 28.8148C69.8575 28.8755 69.7675 28.9512 69.6976 29.0417C69.6273 29.1323 69.5778 29.2346 69.5484 29.3491C69.5188 29.4634 69.5043 29.5872 69.5043 29.72ZM70.3765 31.3036C70.1225 31.2815 69.8999 31.226 69.7085 31.1378C69.5171 31.049 69.356 30.9355 69.2253 30.7969C69.0945 30.6586 68.9972 30.498 68.9328 30.3152C68.8683 30.1327 68.8359 29.9341 68.8359 29.72C68.8359 29.5059 68.8666 29.3066 68.9272 29.122C68.9879 28.9376 69.082 28.7759 69.2087 28.6375C69.3359 28.4992 69.4959 28.3865 69.6893 28.2997C69.8824 28.2131 70.1116 28.1585 70.3765 28.1366V27.6382H71.0668V28.1366C71.3319 28.1585 71.561 28.2131 71.7543 28.2997C71.9477 28.3865 72.1076 28.4992 72.2345 28.6375C72.3617 28.7759 72.4565 28.9376 72.519 29.122C72.5815 29.3066 72.6126 29.5059 72.6126 29.72C72.6126 29.9341 72.5796 30.1327 72.5134 30.3152C72.4472 30.498 72.3497 30.6586 72.2207 30.7969C72.0919 30.9355 71.9309 31.049 71.7377 31.1378C71.5443 31.226 71.3209 31.2815 71.0668 31.3036V31.7577H70.3765V31.3036Z" fill="#E74214"/>
<path d="M76.2793 27.8042H76.9695V30.75L78.6426 27.8042H79.4541V31.7576H78.764V28.7898L77.069 31.7576H76.2793V27.8042Z" fill="#E74214"/>
<path d="M82.998 27.8042H86.1898V28.4022H84.9362V31.7576H84.2461V28.4022H82.998V27.8042Z" fill="#E74214"/>
<path d="M89.7246 27.8042H90.4148V29.3765H92.2093V27.8042H92.8994V31.7576H92.2093V29.9745H90.4148V31.7576H89.7246V27.8042Z" fill="#E74214"/>
<path d="M96.8184 27.8042H99.6564V28.4022H97.5085V29.4375H99.4964V30.0023H97.5085V31.1595H99.6951V31.7576H96.8184V27.8042Z" fill="#E74214"/>
<path d="M106.051 29.0613C106.021 28.9468 105.981 28.8418 105.929 28.7455C105.878 28.6498 105.812 28.5667 105.731 28.4965C105.65 28.4264 105.555 28.372 105.446 28.3331C105.337 28.2944 105.212 28.2752 105.068 28.2752C104.858 28.2752 104.677 28.3175 104.524 28.4026C104.371 28.4874 104.247 28.6007 104.152 28.743C104.056 28.8851 103.985 29.0468 103.939 29.2274C103.893 29.4084 103.87 29.593 103.87 29.781C103.87 29.9695 103.893 30.1541 103.939 30.3348C103.985 30.5159 104.056 30.6774 104.152 30.8194C104.247 30.9613 104.371 31.0748 104.524 31.1599C104.677 31.2447 104.858 31.2873 105.068 31.2873C105.223 31.2873 105.359 31.2602 105.477 31.2068C105.595 31.1534 105.696 31.0798 105.78 30.9854C105.865 30.8914 105.931 30.7816 105.979 30.656C106.027 30.5306 106.058 30.3957 106.073 30.2517H106.747C106.732 30.4881 106.681 30.704 106.595 30.8996C106.508 31.0953 106.392 31.2643 106.244 31.4062C106.097 31.5485 105.924 31.6581 105.725 31.7357C105.589 31.7887 105.444 31.8235 105.289 31.8402H104.838C104.635 31.8189 104.447 31.7683 104.276 31.6886C104.042 31.5799 103.844 31.431 103.682 31.2432C103.52 31.0547 103.396 30.8352 103.309 30.5842C103.223 30.333 103.18 30.0654 103.18 29.781C103.18 29.5008 103.223 29.2348 103.309 28.9838C103.396 28.7329 103.52 28.5132 103.682 28.3247C103.844 28.1368 104.042 27.9872 104.276 27.8766C104.51 27.7657 104.774 27.7104 105.068 27.7104C105.289 27.7104 105.497 27.7406 105.692 27.8017C105.887 27.8626 106.059 27.9513 106.208 28.0673C106.357 28.1838 106.478 28.3247 106.57 28.4912C106.662 28.6572 106.719 28.8472 106.741 29.0613H106.051Z" fill="#E74214"/>
<path d="M110.318 29.9526H111.925V30.5507H110.318V29.9526Z" fill="#E74214"/>
<path d="M115.707 27.8042H116.397V29.6037L118.153 27.8042H119.004L117.43 29.3822L119.114 31.7576H118.253L116.961 29.8693L116.397 30.4285V31.7576H115.707V27.8042Z" fill="#E74214"/>
<path d="M122.39 31.1817C122.486 31.1817 122.568 31.1615 122.636 31.1209C122.704 31.0804 122.762 31.0221 122.81 30.9464C122.858 30.8709 122.895 30.7822 122.923 30.6805C122.951 30.5791 122.974 30.4672 122.992 30.3457C123.007 30.224 123.021 30.1121 123.034 30.0107C123.047 29.909 123.056 29.8076 123.064 29.7061C123.072 29.6046 123.078 29.4974 123.083 29.3849C123.089 29.2723 123.092 29.1421 123.094 28.9948C123.096 28.8469 123.098 28.6772 123.1 28.4853C123.102 28.2931 123.103 28.0662 123.103 27.8042H125.819V31.7576H125.129V28.4022H123.749C123.741 28.6458 123.737 28.8618 123.735 29.0499C123.733 29.238 123.729 29.4125 123.724 29.5731C123.718 29.7337 123.708 29.8887 123.693 30.0383C123.679 30.1876 123.657 30.3494 123.627 30.5228C123.609 30.6372 123.579 30.7673 123.539 30.9133C123.499 31.059 123.435 31.1954 123.348 31.323C123.262 31.4502 123.149 31.5583 123.009 31.647C122.869 31.7354 122.69 31.7796 122.473 31.7796C122.403 31.7796 122.345 31.7777 122.299 31.7742C122.253 31.7703 122.208 31.7649 122.164 31.7576V31.1595C122.208 31.1669 122.247 31.1725 122.28 31.176C122.313 31.1799 122.35 31.1817 122.39 31.1817Z" fill="#E74214"/>
<path d="M129.926 31.1817C130.066 31.1817 130.197 31.1384 130.318 31.0514C130.439 30.9648 130.53 30.8474 130.589 30.7001L129.291 27.8042H130.114L131.014 30.0134H131.025L131.941 27.8042H132.714L131.411 30.7053C131.242 31.0858 131.04 31.3598 130.807 31.5278C130.573 31.6958 130.307 31.7796 130.009 31.7796C129.939 31.7796 129.881 31.7777 129.835 31.7742C129.789 31.7703 129.744 31.7649 129.699 31.7576V31.1595C129.744 31.1669 129.782 31.1725 129.815 31.176C129.849 31.1799 129.885 31.1817 129.926 31.1817Z" fill="#E74214"/>
<path d="M136.889 31.1927H137.911C138.003 31.1927 138.089 31.1836 138.17 31.1649C138.251 31.1465 138.323 31.1126 138.385 31.0626C138.448 31.0128 138.498 30.9455 138.535 30.8606C138.571 30.7757 138.59 30.6686 138.59 30.5394C138.59 30.414 138.569 30.3095 138.526 30.2265C138.484 30.1435 138.429 30.077 138.361 30.0271C138.292 29.9772 138.218 29.9414 138.137 29.9192C138.056 29.8971 137.977 29.886 137.9 29.886H136.889V31.1927ZM136.199 27.8042H138.921V28.4022H136.889V29.3213H137.939C138.218 29.3213 138.446 29.3609 138.623 29.4402C138.8 29.5198 138.936 29.6203 139.032 29.7421C139.127 29.8638 139.193 29.9959 139.228 30.1378C139.263 30.2803 139.28 30.412 139.28 30.5337C139.28 30.6556 139.263 30.7886 139.228 30.9326C139.193 31.0765 139.127 31.2094 139.032 31.3311C138.936 31.4529 138.8 31.5546 138.623 31.6357C138.446 31.717 138.218 31.7576 137.939 31.7576H136.199V27.8042Z" fill="#E74214"/>
<path d="M144.652 28.2752C144.442 28.2752 144.261 28.3175 144.108 28.4026C143.956 28.4874 143.831 28.6007 143.735 28.743C143.64 28.8851 143.569 29.0468 143.523 29.2274C143.477 29.4084 143.454 29.593 143.454 29.781C143.454 29.9695 143.477 30.1541 143.523 30.3348C143.569 30.5159 143.64 30.6774 143.735 30.8194C143.831 30.9613 143.956 31.0748 144.108 31.1599C144.261 31.2447 144.442 31.2873 144.652 31.2873C144.862 31.2873 145.043 31.2447 145.196 31.1599C145.349 31.0748 145.473 30.9613 145.569 30.8194C145.664 30.6774 145.735 30.5159 145.781 30.3348C145.827 30.1541 145.85 29.9695 145.85 29.781C145.85 29.593 145.827 29.4084 145.781 29.2274C145.735 29.0468 145.664 28.8851 145.569 28.743C145.473 28.6007 145.349 28.4874 145.196 28.4026C145.043 28.3175 144.862 28.2752 144.652 28.2752ZM144.882 31.8402H144.422C144.218 31.8189 144.031 31.7683 143.859 31.6886C143.626 31.5799 143.428 31.431 143.266 31.2432C143.104 31.0547 142.98 30.8352 142.893 30.5842C142.807 30.333 142.764 30.0654 142.764 29.781C142.764 29.5008 142.807 29.2348 142.893 28.9838C142.98 28.7329 143.104 28.5132 143.266 28.3247C143.428 28.1368 143.626 27.9872 143.859 27.8766C144.093 27.7657 144.357 27.7104 144.652 27.7104C144.946 27.7104 145.211 27.7657 145.444 27.8766C145.678 27.9872 145.876 28.1368 146.038 28.3247C146.2 28.5132 146.324 28.7329 146.41 28.9838C146.497 29.2348 146.54 29.5008 146.54 29.781C146.54 30.0654 146.497 30.333 146.41 30.5842C146.324 30.8352 146.2 31.0547 146.038 31.2432C145.876 31.431 145.678 31.5799 145.444 31.6886C145.273 31.7683 145.085 31.8189 144.882 31.8402Z" fill="#E74214"/>
<path d="M150.952 31.1927H152.172C152.382 31.1927 152.544 31.1384 152.661 31.0294C152.777 30.9204 152.834 30.7663 152.834 30.5672C152.834 30.3715 152.777 30.2211 152.661 30.1159C152.544 30.0107 152.382 29.9581 152.172 29.9581H150.952V31.1927ZM150.952 29.4596H152.078C152.244 29.4596 152.382 29.4125 152.492 29.3186C152.603 29.2244 152.658 29.0887 152.658 28.9116C152.658 28.712 152.608 28.572 152.509 28.4908C152.409 28.4096 152.266 28.369 152.078 28.369H150.952V29.4596ZM150.262 27.8042H152.177C152.531 27.8042 152.814 27.8855 153.028 28.0478C153.241 28.2102 153.348 28.4556 153.348 28.7842C153.348 28.9835 153.299 29.1544 153.201 29.2962C153.104 29.4385 152.965 29.5483 152.785 29.6258V29.6369C153.028 29.6886 153.212 29.8039 153.337 29.9829C153.462 30.1619 153.525 30.386 153.525 30.6556C153.525 30.8108 153.497 30.9555 153.442 31.0902C153.387 31.2251 153.3 31.3412 153.182 31.439C153.064 31.537 152.914 31.6145 152.73 31.6719C152.546 31.7288 152.326 31.7576 152.073 31.7576H150.262V27.8042Z" fill="#E74214"/>
</g>
<defs>
<clipPath id="clip0_1_653">
<rect width="156.24" height="31.44" fill="white" transform="translate(0 0.399902)"/>
</clipPath>
</defs>
</svg>
