<svg width="128" height="35" viewBox="0 0 128 35" fill="none" xmlns="http://www.w3.org/2000/svg">
<g clip-path="url(#clip0_1_646)">
<path fill-rule="evenodd" clip-rule="evenodd" d="M31.641 34.5678H31.9555V0.838379H31.641V34.5678ZM8.09847 0.989746L6.32482 4.05951L8.63938 8.35605L0.587891 22.3293L2.359 25.3243H5.9063L8.39334 21.1981L24.4424 21.2146L26.2947 17.9574L24.5648 14.9984H19.8856L11.6432 0.989746H8.09847ZM8.48528 4.06331L9.22975 2.80805H10.5842L17.6776 14.9946L14.8462 14.9972L8.48592 4.06331H8.48528ZM2.76421 22.3147L9.74783 10.175L11.1011 12.5316L4.83146 23.373L3.41799 23.3838L2.76421 22.3147ZM10.881 16.9029H23.5134L24.2262 18.0061L23.5553 19.3076H9.45169L10.881 16.9029ZM45.723 9.16228C46.659 9.16228 47.5353 9.33581 48.3496 9.68035C49.1644 10.028 49.9368 10.5493 50.6641 11.2516L54.6001 11.3245L54.6192 12.8394V22.0645H55.4904V25.3401H50.6647V23.6542C50.0015 24.3344 49.2494 24.8518 48.4073 25.209C47.5658 25.5637 46.6698 25.7423 45.723 25.7423C43.3863 25.7423 41.468 24.9633 39.9715 23.4047C38.4743 21.8448 37.7248 19.8612 37.7248 17.4526C37.7248 15.1086 38.4845 13.1421 40.0057 11.5499C41.5257 9.95838 43.43 9.16228 45.723 9.16228ZM91.2595 9.23005C93.7897 9.23005 95.8208 10.0502 97.3573 11.6912C98.8906 13.3328 99.6591 15.5228 99.6591 18.262V18.6553H86.5854C86.7186 19.8605 87.2005 20.7865 88.0306 21.4318C88.8613 22.0785 89.9786 22.4002 91.3851 22.4002C92.2608 22.4002 93.0465 22.2545 93.744 21.9619C94.4422 21.67 94.9787 21.2589 95.3566 20.7288H99.2292C98.7644 22.3236 97.843 23.5579 96.4625 24.4307C95.0814 25.3059 93.3585 25.7429 91.2925 25.7429C88.6761 25.7429 86.5657 24.9829 84.9652 23.4642C83.364 21.9455 82.5638 19.953 82.5638 17.4868C82.5638 15.0744 83.378 13.0972 85.0064 11.5493C86.6361 10.004 88.7199 9.23005 91.2602 9.23005H91.2595ZM118.256 9.16228C119.205 9.16228 120.051 9.28895 120.798 9.54101C121.072 9.63348 121.539 9.82348 122.021 10.0261L122.284 10.1376C122.853 10.3802 123.398 10.6202 123.622 10.719L123.702 10.7545L123.73 10.7671H125.662V14.5108H122.465C122.189 13.6862 121.73 13.0579 121.091 12.6228C120.452 12.1877 119.666 11.9705 118.742 11.9705C117.992 11.9705 117.393 12.125 116.945 12.4322C116.5 12.7412 116.277 13.1364 116.277 13.6184C116.277 14.5317 117.29 15.1745 119.321 15.5475C119.419 15.5583 119.496 15.5697 119.553 15.5805L121.357 15.8971C123.237 16.2391 124.627 16.8091 125.524 17.6059C126.42 18.4013 126.869 19.4615 126.869 20.7865C126.869 22.2241 126.313 23.4078 125.205 24.3414C124.095 25.2755 122.645 25.7429 120.855 25.7429C119.951 25.7429 119.075 25.6131 118.231 25.3534C117.386 25.0957 116.545 24.7011 115.705 24.171L115.673 25.3408H112.724V19.8593H115.804C116.2 20.8188 116.807 21.5484 117.622 22.0506C118.437 22.5509 119.436 22.8017 120.615 22.8017C121.321 22.8017 121.89 22.6307 122.327 22.29C122.761 21.9493 122.98 21.5047 122.98 20.9556C122.98 20.4932 122.814 20.1392 122.483 19.8916C122.153 19.6458 121.401 19.4121 120.23 19.1911L117.633 18.7592C115.896 18.4507 114.61 17.9073 113.775 17.1296C112.939 16.3525 112.523 15.3132 112.523 14.0111C112.523 12.5443 113.044 11.3688 114.086 10.4872C115.131 9.60498 116.521 9.16228 118.256 9.16228ZM61.7112 0.939712V11.7013C62.6415 10.8222 63.5597 10.1813 64.4633 9.77281C65.3663 9.36748 66.3238 9.16291 67.3308 9.16291C68.9941 9.16291 70.2269 9.60941 71.0309 10.5011C71.8344 11.396 72.237 12.778 72.237 14.6526V22.0658H73.1083V25.3408H68.282V15.533C68.282 14.6805 68.0645 14.018 67.632 13.5475C67.2008 13.0769 66.5908 12.8394 65.8032 12.8394C65.1044 12.8394 64.4164 13.037 63.7404 13.4297C63.0644 13.8236 62.3891 14.4259 61.7112 15.234V22.0658H62.5825V25.3408H57.7562V4.21531H56.8842V0.939712H61.7112ZM80.1915 0.939712V22.0658H81.13V25.3408H75.2327V22.0658H76.3043V4.21531H75.2656V0.939712H80.1915ZM110.731 9.10338C110.803 9.10338 110.917 9.10718 111.078 9.11921C111.209 9.12871 111.32 9.13378 111.391 9.13378H111.739V12.3619H110.607C109.171 12.3619 108.042 12.7387 107.255 13.4829C106.46 14.2321 106.075 15.2625 106.075 16.635V22.3559H107.086V25.311H101.575V22.3559H102.588V12.4917H101.575V9.53721H106.075V11.1243C106.523 10.5733 107.03 10.1363 107.591 9.82031C108.439 9.34468 109.496 9.10275 110.73 9.10275L110.731 9.10338ZM46.2639 12.7051C44.9335 12.7051 43.8479 13.1485 43.0083 14.0339C42.1681 14.9186 41.7477 16.0637 41.7477 17.4691C41.7477 18.863 42.1681 19.9999 43.0083 20.8789C43.8485 21.7593 44.9335 22.1994 46.2639 22.1994C47.5601 22.1994 48.6394 21.7536 49.5024 20.8631C50.3648 19.9733 50.7985 18.8415 50.7985 17.4684C50.7985 16.0966 50.3623 14.9611 49.4948 14.0579C48.626 13.1561 47.5493 12.7051 46.2639 12.7051ZM91.2519 12.5715C90.056 12.5715 89.0477 12.866 88.2221 13.4531C87.3977 14.0415 86.8524 14.8616 86.5854 15.9142H95.7701C95.4498 14.8179 94.9038 13.9864 94.134 13.4195C93.3648 12.8552 92.4035 12.5709 91.2519 12.5709V12.5715ZM43.0996 30.9458C44.1776 30.9458 44.9538 31.7457 44.9538 32.785C44.9538 33.8344 44.1776 34.6191 43.0996 34.6191C42.0165 34.6191 41.2353 33.8293 41.2353 32.785C41.2353 31.7558 42.0165 30.9458 43.0996 30.9458ZM102.893 30.9458C103.971 30.9458 104.747 31.7457 104.747 32.785C104.747 33.8344 103.971 34.6191 102.893 34.6191C101.81 34.6191 101.029 33.8293 101.029 32.785C101.029 31.7558 101.81 30.9458 102.893 30.9458ZM39.1807 30.9458C39.7166 30.9458 40.0387 31.0788 40.274 31.2719L40.0901 31.5519C39.8396 31.3631 39.6094 31.2719 39.1909 31.2719C38.721 31.2719 38.4046 31.5012 38.4046 31.873C38.4046 32.2447 38.6899 32.4031 39.2112 32.5253C39.9924 32.7083 40.3608 33.0085 40.3608 33.595C40.3608 34.2568 39.8193 34.6185 39.17 34.6185C38.6696 34.6185 38.2251 34.4918 37.9036 34.2575L38.0977 33.9465C38.3634 34.1498 38.7464 34.2879 39.1554 34.2879C39.6557 34.2879 39.9975 34.0428 39.9975 33.6305C39.9975 33.2334 39.7527 33.0142 39.1243 32.8768C38.4141 32.7185 38.0412 32.4385 38.0412 31.8831C38.0412 31.3435 38.5263 30.9458 39.1807 30.9458ZM124.98 30.9458C125.517 30.9458 125.838 31.0788 126.073 31.2719L125.889 31.5519C125.639 31.3631 125.409 31.2719 124.99 31.2719C124.521 31.2719 124.204 31.5012 124.204 31.873C124.204 32.2447 124.49 32.4031 125.011 32.5253C125.792 32.7083 126.16 33.0085 126.16 33.595C126.16 34.2568 125.618 34.6185 124.97 34.6185C124.469 34.6185 124.025 34.4918 123.703 34.2575L123.897 33.9465C124.162 34.1498 124.546 34.2879 124.954 34.2879C125.455 34.2879 125.798 34.0428 125.798 33.6305C125.798 33.2334 125.552 33.0142 124.924 32.8768C124.214 32.7185 123.841 32.4385 123.841 31.8831C123.841 31.3435 124.326 30.9458 124.98 30.9458ZM121.832 30.9458C122.491 30.9458 122.864 31.1801 122.996 31.2719L122.818 31.562C122.72 31.4803 122.409 31.277 121.878 31.277C120.943 31.277 120.315 31.8831 120.315 32.7799C120.315 33.6666 120.923 34.2872 121.878 34.2872C122.409 34.2872 122.705 34.1036 122.828 34.0225L122.996 34.3081C122.864 34.4 122.491 34.6185 121.832 34.6185C120.703 34.6185 119.947 33.8445 119.947 32.79C119.947 31.7197 120.724 30.9458 121.832 30.9458ZM68.5845 30.9458C69.121 30.9458 69.4425 31.0788 69.6777 31.2719L69.4938 31.5519C69.2433 31.3631 69.0132 31.2719 68.5946 31.2719C68.1254 31.2719 67.8083 31.5012 67.8083 31.873C67.8083 32.2447 68.0937 32.4031 68.6149 32.5253C69.3968 32.7083 69.7646 33.0085 69.7646 33.595C69.7646 34.2568 69.223 34.6185 68.5743 34.6185C68.0734 34.6185 67.6295 34.4918 67.3074 34.2575L67.5014 33.9465C67.7671 34.1498 68.1501 34.2879 68.5591 34.2879C69.0601 34.2879 69.4019 34.0428 69.4019 33.6305C69.4019 33.2334 69.1565 33.0142 68.528 32.8768C67.8178 32.7185 67.445 32.4385 67.445 31.8831C67.445 31.3435 67.9307 30.9458 68.5845 30.9458ZM107.544 30.9458C108.203 30.9458 108.576 31.1801 108.709 31.2719L108.54 31.562C108.437 31.4759 108.116 31.277 107.579 31.277C106.716 31.277 106.011 31.9084 106.011 32.79C106.011 33.671 106.716 34.2872 107.549 34.2872C107.978 34.2872 108.31 34.1808 108.519 34.0782V32.9427H108.887V34.2568C108.657 34.3898 108.238 34.6191 107.533 34.6191C106.466 34.6191 105.643 33.8445 105.643 32.79C105.643 31.7355 106.466 30.9458 107.544 30.9458ZM49.5645 30.9914V33.1466C49.5645 33.8192 49.9888 34.272 50.6933 34.272C51.3832 34.272 51.7922 33.8192 51.7922 33.1466V30.9914H52.1492V33.1213C52.1492 34.0839 51.5671 34.6185 50.6838 34.6185C49.7789 34.6185 49.1872 34.0789 49.1872 33.1213V30.9914H49.5645ZM60.2293 30.9458C61.3073 30.9458 62.0834 31.7457 62.0834 32.785C62.0834 33.8344 61.3073 34.6191 60.2293 34.6191C59.1462 34.6191 58.3649 33.8293 58.3649 32.785C58.3649 31.7558 59.1462 30.9458 60.2293 30.9458ZM84.8701 30.9458C85.9481 30.9458 86.7243 31.7457 86.7243 32.785C86.7243 33.8344 85.9481 34.6191 84.8701 34.6191C83.787 34.6191 83.0058 33.8293 83.0058 32.785C83.0058 31.7558 83.787 30.9458 84.8701 30.9458ZM112.782 30.9458C113.318 30.9458 113.64 31.0788 113.875 31.2719L113.691 31.5519C113.441 31.3631 113.211 31.2719 112.792 31.2719C112.323 31.2719 112.006 31.5012 112.006 31.873C112.006 32.2447 112.291 32.4031 112.813 32.5253C113.594 32.7083 113.962 33.0085 113.962 33.595C113.962 34.2568 113.42 34.6185 112.772 34.6185C112.271 34.6185 111.827 34.4918 111.505 34.2575L111.699 33.9465C111.964 34.1498 112.348 34.2879 112.756 34.2879C113.257 34.2879 113.599 34.0428 113.599 33.6305C113.599 33.2334 113.354 33.0142 112.726 32.8768C112.016 32.7185 111.643 32.4385 111.643 31.8831C111.643 31.3435 112.128 30.9458 112.782 30.9458ZM88.1105 30.9559L90.517 33.9053V30.992H90.8797V34.6083H90.6546L88.243 31.6697V34.5729H87.8809V30.9565H88.1105V30.9559ZM63.4646 30.9559L65.8704 33.9053V30.992H66.2332V34.6083H66.0087L63.5971 31.6697V34.5729H63.2344V30.9565H63.4646V30.9559ZM73.7253 30.9914C74.6296 30.9914 75.0075 31.384 75.0075 31.9496C75.0075 32.3062 74.7824 32.5969 74.4812 32.7394C74.8693 32.866 75.1153 33.1871 75.1153 33.5538C75.1153 34.191 74.6651 34.5735 73.8534 34.5735H72.5598V30.9914H73.7253ZM79.8123 30.9914L80.9157 32.8052L82.0292 30.9914H82.4477L81.0844 33.1618V34.5729H80.7216V33.1517L79.3729 30.992H79.8123V30.9914ZM46.4681 30.9914V34.2467H48.4244V34.5729H46.1054V30.9914H46.4681ZM57.2096 30.9914V34.5729H56.8468V30.9914H57.2096ZM78.6252 30.9914V31.3175H76.6689V32.5912H78.3798V32.9173H76.6689V34.2473H78.6252V34.5729H76.3062V30.9914H78.6252ZM98.5659 30.9914V34.2467H100.522V34.5729H98.2032V30.9914H98.5659ZM55.8956 30.9914V31.3175H54.6692V34.5729H54.3015V31.3175H53.0503V30.9914H55.8956ZM110.427 30.9914V34.5729H110.064V30.9914H110.427ZM117.467 30.9914V31.3175H116.242V34.5729H115.874V31.3175H114.622V30.9914H117.467ZM118.786 30.9914V34.5729H118.424V30.9914H118.786ZM93.5062 30.9914C94.6299 30.9914 95.3813 31.7051 95.3813 32.7799C95.3813 33.8547 94.6299 34.5722 93.5062 34.5722H92.2906V30.9914H93.5062ZM43.0996 31.2764C42.2467 31.2764 41.6031 31.9395 41.6031 32.785C41.6031 33.6558 42.2467 34.2879 43.0996 34.2879C43.943 34.2879 44.586 33.6609 44.586 32.785C44.586 31.9338 43.943 31.277 43.0996 31.277V31.2764ZM60.2293 31.2764C59.3764 31.2764 58.7327 31.9395 58.7327 32.785C58.7327 33.6558 59.3764 34.2879 60.2293 34.2879C61.072 34.2879 61.7156 33.6609 61.7156 32.785C61.7156 31.9338 61.072 31.277 60.2293 31.277V31.2764ZM84.8701 31.2764C84.0172 31.2764 83.3736 31.9395 83.3736 32.785C83.3736 33.6558 84.0172 34.2879 84.8701 34.2879C85.7135 34.2879 86.3565 33.6609 86.3565 32.785C86.3565 31.9338 85.7135 31.277 84.8701 31.277V31.2764ZM102.893 31.2764C102.04 31.2764 101.397 31.9395 101.397 32.785C101.397 33.6558 102.04 34.2879 102.893 34.2879C103.737 34.2879 104.38 33.6609 104.38 32.785C104.38 31.9338 103.736 31.277 102.893 31.277V31.2764ZM93.5215 31.3175H92.6533V34.2467H93.5221C94.4206 34.2467 95.0085 33.6609 95.0085 32.785C95.0085 31.9084 94.4206 31.3175 93.5215 31.3175ZM73.8782 32.9173H72.9232V34.2467H73.8376C74.3943 34.2467 74.7418 33.982 74.7418 33.5336C74.7418 33.2182 74.4863 32.9173 73.8782 32.9173ZM73.7146 31.3175H72.9232V32.5912H73.8782C74.343 32.5912 74.6296 32.3568 74.6296 31.9901C74.6296 31.5823 74.3487 31.3175 73.7146 31.3175Z" fill="#E74214"/>
</g>
<defs>
<clipPath id="clip0_1_646">
<rect width="126.825" height="34.2" fill="white" transform="translate(0.587891 0.524902)"/>
</clipPath>
</defs>
</svg>
